# xmcd
#
# Track frame offsets:
#	150
#	16000
#	33041
#	53091
#	71717
#
# Disc length: 1180
#
# Revision: 3
# Processed by: cddbd v1.5.1PL0 Copyright (c) Steve Scherf et al.
# Submitted via: ExactAudioCopy v0.90b3
# Normalized: r2:DSETVAR1
#
DISCID=32049a05
DTITLE=Various Artist - Heineken NightLive 2002 (Promo)
DYEAR=2002
DGENRE=Pop
TTITLE0=Madness - Nightboat to Cairo
TTITLE1=Shaggy - Lonely Lover
TTITLE2=Elvis Crespo - Suavemente
TTITLE3=Chaka Khan - I'm Every Woman
TTITLE4=Earth, Wind and Fire - Boogie Wonderland [Stretch and Vern Remix]
EXTD=
EXTT0=
EXTT1=
EXTT2=
EXTT3=
EXTT4=
PLAYORDER=
